<svg aria-hidden="true" style="width:0;height:0;position:absolute;overflow:hidden" xmlns="http://www.w3.org/2000/svg"><defs><symbol id="logo-icon" viewBox="0 0 32 32"><path fill="none" style="stroke:#fff" stroke-linejoin="round" stroke-linecap="round" stroke-width="2.667" d="M26.427 2.667H5.574a2.907 2.907 0 0 0-2.907 2.907v20.853a2.907 2.907 0 0 0 2.907 2.907v0h20.853a2.907 2.907 0 0 0 2.907-2.907v0V5.574a2.907 2.907 0 0 0-2.907-2.907v0zm-17.094 0v26.667M22.667 2.667v26.667M2.667 16h26.667M2.667 9.333h6.667M2.667 22.667h6.667m13.333 0h6.667M22.667 9.333h6.667"/></symbol><symbol id="search-icon" viewBox="0 0 12 12" fill="none" xmlns="http://www.w3.org/2000/svg"><path d="M5.5 9.5a4 4 0 1 0 0-8 4 4 0 0 0 0 8ZM10.5 10.5 8.325 8.325" stroke="#fff" stroke-linecap="round" stroke-linejoin="round"/></symbol><symbol id="arrow-left-icon" viewBox="0 0 16 16" fill="none" xmlns="http://www.w3.org/2000/svg"><path d="M12.667 8H3.333M8 12.667 3.333 8 8 3.333" stroke="#000" stroke-width="1.333" stroke-linecap="round" stroke-linejoin="round"/></symbol><symbol id="arrow-right-icon" viewBox="0 0 16 16" fill="none" xmlns="http://www.w3.org/2000/svg"><path d="M3.333 8h9.334M8 12.667 12.667 8 8 3.333" stroke="#000" stroke-width="1.333" stroke-linecap="round" stroke-linejoin="round"/></symbol><symbol id="heart-icon" viewBox="0 0 14 13" fill="none" xmlns="http://www.w3.org/2000/svg"><path d="m7 12.88-.98-.98C2.38 8.68 0 6.51 0 3.85 0 1.68 1.68 0 3.85 0 5.04 0 6.23.56 7 1.47 7.77.56 8.96 0 10.15 0 12.32 0 14 1.68 14 3.85c0 2.66-2.38 4.83-6.02 8.05l-.98.98Z" fill="#FF6B08"/></symbol><symbol id="loader-icon" viewBox="0 0 24 24"><path d="M11 2v4a1 1 0 0 0 2 0V2a1 1 0 0 0-2 0zm0 16v4a1 1 0 0 0 2 0v-4a1 1 0 0 0-2 0zM4.223 5.637l2.83 2.83a.999.999 0 1 0 1.414-1.414l-2.83-2.83a.999.999 0 1 0-1.414 1.414zm11.31 11.31 2.83 2.83a.999.999 0 1 0 1.414-1.414l-2.83-2.83a.999.999 0 1 0-1.414 1.414zM2 13h4a1 1 0 0 0 0-2H2a1 1 0 0 0 0 2zm16 0h4a1 1 0 0 0 0-2h-4a1 1 0 0 0 0 2zM5.637 19.777l2.83-2.83a.999.999 0 1 0-1.414-1.414l-2.83 2.83a.999.999 0 1 0 1.414 1.414zm11.31-11.31 2.83-2.83a.999.999 0 1 0-1.414-1.414l-2.83 2.83a.999.999 0 1 0 1.414 1.414z" fill="#FF6B08"/></symbol><symbol id="close-btn-icon" viewBox="0 0 32 32"><path d="M32 3.223 28.777 0 16 12.777 3.223 0 0 3.223 12.777 16 0 28.777 3.223 32 16 19.223 28.777 32 32 28.777 19.223 16 32 3.223z"/></symbol></defs></svg>